# xmcd CD database file
#
# Track frame offsets:
#	150
#	13882
#	30160
#	42950
#	59392
#	75377
#	93925
#	107790
#	122200
#	139992
#	155302
#	170690
#	187625
#	205975
#	221932
#	235957
#	248795
#	263945
#	285722
#	300890
#	314542
#	315195
#	316242
#	317005
#	318055
#	318802
#	319595
#	320252
#	321020
#	321647
#	322422
#	323257
#	324355
#	325305
#	326040
#	326837
#	327642
#	328412
#	329195
#	330067
#	330972
#
# Disc length: 4425 seconds
#
# Revision: 0
# Processed by: cddbd v1.5.2PL0 Copyright (c) Steve Scherf et al.
# Submitted via: CDex 1.70beta2
#
DISCID=51114729
DTITLE=Jones Country - Jones Country Recurrent CHC-1181
DYEAR=0000
DGENRE=Country
TTITLE0=Trace Adkins/Lonely Won't Leave Me Alone
TTITLE1=Clint Black/Shoes You're Watching
TTITLE2=Garth Brooks/She's Gonna Make It
TTITLE3=Garth Brooks/Two Pina Coladas
TTITLE4=Tracy Byrd/I'm From The Country
TTITLE5=Kenny Chesney/That's Why I'm Here
TTITLE6=Dixie Chicks/I Can Love You Better
TTITLE7=Faith Hill/This Kiss
TTITLE8=Toby Keith/Dream Walkin'
TTITLE9=Jo Dee Messina/Bye, Bye
TTITLE10=Michael Peterson/Too Good To Be True
TTITLE11=Collin Raye/I Can Still Feel You
TTITLE12=LeAnn Rimes/Commitment
TTITLE13=George Strait/I Just Want To Dance With You
TTITLE14=George Strait/Round About Way
TTITLE15=Randy Travis/Out Of My Bones
TTITLE16=Shania Twain/You're Still The One
TTITLE17=Steve Wariner/Holes In The Floor Of Heaven
TTITLE18=Mark Wills/I Do (Cherish You)
TTITLE19=Trisha Yearwood/Perfect Love
TTITLE20=CHC1180/Track 21
TTITLE21=CHC1180/Track 22
TTITLE22=CHC1180/Track 23
TTITLE23=CHC1180/Track 24
TTITLE24=CHC1180/Track 25
TTITLE25=CHC1180/Track 26
TTITLE26=CHC1180/Track 27
TTITLE27=CHC1180/Track 28
TTITLE28=CHC1180/Track 29
TTITLE29=CHC1180/Track 30
TTITLE30=CHC1180/Track 31
TTITLE31=CHC1180/Track 32
TTITLE32=CHC1180/Track 33
TTITLE33=CHC1180/Track 34
TTITLE34=CHC1180/Track 35
TTITLE35=CHC1180/Track 36
TTITLE36=CHC1180/Track 37
TTITLE37=CHC1180/Track 38
TTITLE38=CHC1180/Track 39
TTITLE39=CHC1180/Track 40
TTITLE40=CHC1180/Track 41
EXTD=YEAR: 0000
EXTT0=
EXTT1=
EXTT2=
EXTT3=
EXTT4=
EXTT5=
EXTT6=
EXTT7=
EXTT8=
EXTT9=
EXTT10=
EXTT11=
EXTT12=
EXTT13=
EXTT14=
EXTT15=
EXTT16=
EXTT17=
EXTT18=
EXTT19=
EXTT20=
EXTT21=
EXTT22=
EXTT23=
EXTT24=
EXTT25=
EXTT26=
EXTT27=
EXTT28=
EXTT29=
EXTT30=
EXTT31=
EXTT32=
EXTT33=
EXTT34=
EXTT35=
EXTT36=
EXTT37=
EXTT38=
EXTT39=
EXTT40=
PLAYORDER=
